<mxfile host="app.diagrams.net" agent="Mozilla/5.0 (Windows NT 10.0; Win64; x64) AppleWebKit/537.36 (KHTML, like Gecko) Chrome/132.0.0.0 Safari/537.36 OPR/117.0.0.0" version="26.0.16">
  <diagram name="Page-1" id="5CyCU0txXTP8QEjMaPeb">
    <mxGraphModel dx="1905" dy="893" grid="1" gridSize="10" guides="1" tooltips="1" connect="1" arrows="1" fold="1" page="1" pageScale="1" pageWidth="4681" pageHeight="3300" math="0" shadow="0">
      <root>
        <mxCell id="0" />
        <mxCell id="1" parent="0" />
        <mxCell id="4auQ0otJ4i32f-Xhifq_-1" value="" style="html=1;whiteSpace=wrap;" vertex="1" parent="1">
          <mxGeometry x="820" y="530" width="830" height="1150" as="geometry" />
        </mxCell>
        <mxCell id="4auQ0otJ4i32f-Xhifq_-2" value="&lt;b&gt;&lt;font style=&quot;font-size: 24px;&quot;&gt;&amp;nbsp;Gestion des prescriptions&lt;/font&gt;&lt;/b&gt;" style="text;html=1;align=center;verticalAlign=middle;whiteSpace=wrap;rounded=0;" vertex="1" parent="1">
          <mxGeometry x="1020" y="570" width="390" height="30" as="geometry" />
        </mxCell>
        <mxCell id="4auQ0otJ4i32f-Xhifq_-3" value="&lt;b&gt;Medecin&lt;/b&gt;" style="shape=umlActor;verticalLabelPosition=bottom;verticalAlign=top;html=1;outlineConnect=0;fillColor=#d5e8d4;strokeColor=#82b366;" vertex="1" parent="1">
          <mxGeometry x="710" y="785" width="30" height="60" as="geometry" />
        </mxCell>
        <mxCell id="4auQ0otJ4i32f-Xhifq_-4" value="&lt;b&gt;Pharmacien&lt;/b&gt;" style="shape=umlActor;verticalLabelPosition=bottom;verticalAlign=top;html=1;outlineConnect=0;fillColor=#f8cecc;strokeColor=#b85450;" vertex="1" parent="1">
          <mxGeometry x="1740" y="1080" width="30" height="60" as="geometry" />
        </mxCell>
        <mxCell id="4auQ0otJ4i32f-Xhifq_-5" value="&lt;b&gt;Patient&lt;/b&gt;" style="shape=umlActor;verticalLabelPosition=bottom;verticalAlign=top;html=1;outlineConnect=0;fillColor=#dae8fc;strokeColor=#6c8ebf;gradientColor=#7ea6e0;" vertex="1" parent="1">
          <mxGeometry x="1760" y="917.5" width="30" height="60" as="geometry" />
        </mxCell>
        <mxCell id="4auQ0otJ4i32f-Xhifq_-6" value="&lt;font style=&quot;font-size: 18px;&quot;&gt;Gerer des prescriptions&lt;/font&gt;" style="ellipse;whiteSpace=wrap;html=1;align=center;fillColor=#dae8fc;gradientColor=#7ea6e0;strokeColor=#6c8ebf;" vertex="1" parent="1">
          <mxGeometry x="850" y="860" width="230" height="50" as="geometry" />
        </mxCell>
        <mxCell id="4auQ0otJ4i32f-Xhifq_-8" value="&lt;table&gt;&lt;tbody&gt;&lt;tr&gt;&lt;td&gt;&lt;font style=&quot;font-size: 16px;&quot;&gt;Supprimer&lt;/font&gt;&lt;/td&gt;&lt;/tr&gt;&lt;/tbody&gt;&lt;/table&gt;&lt;table&gt;&lt;tbody&gt;&lt;tr&gt;&lt;/tr&gt;&lt;/tbody&gt;&lt;/table&gt;" style="ellipse;whiteSpace=wrap;html=1;align=center;fillColor=#dae8fc;strokeColor=#6c8ebf;" vertex="1" parent="1">
          <mxGeometry x="1290" y="865" width="230" height="40" as="geometry" />
        </mxCell>
        <mxCell id="4auQ0otJ4i32f-Xhifq_-9" value="&lt;table&gt;&lt;tbody&gt;&lt;tr&gt;&lt;td&gt;&lt;font style=&quot;font-size: 16px;&quot;&gt;Modifier&amp;nbsp;&lt;/font&gt;&lt;/td&gt;&lt;/tr&gt;&lt;/tbody&gt;&lt;/table&gt;&lt;table&gt;&lt;tbody&gt;&lt;tr&gt;&lt;td&gt;&lt;/td&gt;&lt;/tr&gt;&lt;/tbody&gt;&lt;/table&gt;" style="ellipse;whiteSpace=wrap;html=1;align=center;fillColor=#dae8fc;strokeColor=#6c8ebf;" vertex="1" parent="1">
          <mxGeometry x="1290" y="810" width="230" height="40" as="geometry" />
        </mxCell>
        <mxCell id="4auQ0otJ4i32f-Xhifq_-10" value="&lt;table&gt;&lt;tbody&gt;&lt;tr&gt;&lt;td&gt;&lt;font style=&quot;font-size: 17px;&quot;&gt;Créer&lt;/font&gt;&lt;/td&gt;&lt;/tr&gt;&lt;/tbody&gt;&lt;/table&gt;&lt;table&gt;&lt;tbody&gt;&lt;tr&gt;&lt;td&gt;&lt;/td&gt;&lt;/tr&gt;&lt;/tbody&gt;&lt;/table&gt;" style="ellipse;whiteSpace=wrap;html=1;align=center;fillColor=#dae8fc;strokeColor=#6c8ebf;" vertex="1" parent="1">
          <mxGeometry x="1100" y="760" width="230" height="40" as="geometry" />
        </mxCell>
        <mxCell id="4auQ0otJ4i32f-Xhifq_-11" value="&lt;table&gt;&lt;tbody&gt;&lt;tr&gt;&lt;td&gt;&lt;font style=&quot;font-size: 16px;&quot;&gt;Renouveler&amp;nbsp;&lt;/font&gt;&lt;/td&gt;&lt;/tr&gt;&lt;/tbody&gt;&lt;/table&gt;&lt;table&gt;&lt;tbody&gt;&lt;tr&gt;&lt;td&gt;&lt;/td&gt;&lt;/tr&gt;&lt;/tbody&gt;&lt;/table&gt;" style="ellipse;whiteSpace=wrap;html=1;align=center;fillColor=#dae8fc;strokeColor=#6c8ebf;" vertex="1" parent="1">
          <mxGeometry x="870" y="670" width="230" height="40" as="geometry" />
        </mxCell>
        <mxCell id="4auQ0otJ4i32f-Xhifq_-12" value="&lt;table&gt;&lt;tbody&gt;&lt;tr&gt;&lt;td&gt;&lt;font style=&quot;font-size: 16px;&quot;&gt;Assigner à une Pharmacie&lt;/font&gt;&lt;/td&gt;&lt;/tr&gt;&lt;/tbody&gt;&lt;/table&gt;&lt;table&gt;&lt;tbody&gt;&lt;tr&gt;&lt;td&gt;&lt;/td&gt;&lt;/tr&gt;&lt;/tbody&gt;&lt;/table&gt;" style="ellipse;whiteSpace=wrap;html=1;align=center;fillColor=#dae8fc;strokeColor=#6c8ebf;" vertex="1" parent="1">
          <mxGeometry x="1310" y="710" width="330" height="40" as="geometry" />
        </mxCell>
        <mxCell id="4auQ0otJ4i32f-Xhifq_-13" value="&lt;table&gt;&lt;tbody&gt;&lt;tr&gt;&lt;td&gt;&lt;table&gt;&lt;tbody&gt;&lt;tr&gt;&lt;td&gt;&lt;font style=&quot;font-size: 16px;&quot;&gt;Valider&lt;/font&gt;&lt;/td&gt;&lt;/tr&gt;&lt;/tbody&gt;&lt;/table&gt;&lt;table&gt;&lt;tbody&gt;&lt;tr&gt;&lt;td&gt;&lt;/td&gt;&lt;/tr&gt;&lt;/tbody&gt;&lt;/table&gt;&lt;table&gt;&lt;tbody&gt;&lt;tr&gt;&lt;/tr&gt;&lt;/tbody&gt;&lt;/table&gt;&lt;/td&gt;&lt;/tr&gt;&lt;/tbody&gt;&lt;/table&gt;" style="ellipse;whiteSpace=wrap;html=1;align=center;fillColor=#dae8fc;strokeColor=#6c8ebf;" vertex="1" parent="1">
          <mxGeometry x="1235" y="1170" width="190" height="40" as="geometry" />
        </mxCell>
        <mxCell id="4auQ0otJ4i32f-Xhifq_-14" value="&lt;font style=&quot;font-size: 18px;&quot;&gt;Traiter les prescriptions&lt;/font&gt;" style="ellipse;whiteSpace=wrap;html=1;align=center;fillColor=#dae8fc;gradientColor=#7ea6e0;strokeColor=#6c8ebf;" vertex="1" parent="1">
          <mxGeometry x="1380" y="1090" width="230" height="50" as="geometry" />
        </mxCell>
        <mxCell id="4auQ0otJ4i32f-Xhifq_-15" value="&lt;table&gt;&lt;tbody&gt;&lt;tr&gt;&lt;td&gt;&lt;table&gt;&lt;tbody&gt;&lt;tr&gt;&lt;td&gt;&lt;font style=&quot;font-size: 15px;&quot;&gt;Proposer un Médicament Équivalent&lt;/font&gt;&lt;/td&gt;&lt;/tr&gt;&lt;/tbody&gt;&lt;/table&gt;&lt;table&gt;&lt;tbody&gt;&lt;tr&gt;&lt;td&gt;&lt;/td&gt;&lt;/tr&gt;&lt;/tbody&gt;&lt;/table&gt;&lt;table&gt;&lt;tbody&gt;&lt;tr&gt;&lt;/tr&gt;&lt;/tbody&gt;&lt;/table&gt;&lt;/td&gt;&lt;/tr&gt;&lt;/tbody&gt;&lt;/table&gt;" style="ellipse;whiteSpace=wrap;html=1;align=center;fillColor=#dae8fc;strokeColor=#6c8ebf;" vertex="1" parent="1">
          <mxGeometry x="890" y="1180" width="300" height="40" as="geometry" />
        </mxCell>
        <mxCell id="4auQ0otJ4i32f-Xhifq_-16" value="&lt;table&gt;&lt;tbody&gt;&lt;tr&gt;&lt;td&gt;&lt;table&gt;&lt;tbody&gt;&lt;tr&gt;&lt;td&gt;&lt;font style=&quot;font-size: 16px;&quot;&gt;Vérifier l’état&amp;nbsp;&lt;/font&gt;&lt;/td&gt;&lt;/tr&gt;&lt;/tbody&gt;&lt;/table&gt;&lt;table&gt;&lt;tbody&gt;&lt;tr&gt;&lt;td&gt;&lt;/td&gt;&lt;/tr&gt;&lt;/tbody&gt;&lt;/table&gt;&lt;table&gt;&lt;tbody&gt;&lt;tr&gt;&lt;/tr&gt;&lt;/tbody&gt;&lt;/table&gt;&lt;/td&gt;&lt;/tr&gt;&lt;/tbody&gt;&lt;/table&gt;" style="ellipse;whiteSpace=wrap;html=1;align=center;fillColor=#dae8fc;strokeColor=#6c8ebf;" vertex="1" parent="1">
          <mxGeometry x="1202.3899999999999" y="920" width="275.22" height="40" as="geometry" />
        </mxCell>
        <mxCell id="4auQ0otJ4i32f-Xhifq_-17" value="&lt;table&gt;&lt;tbody&gt;&lt;tr&gt;&lt;td&gt;&lt;table&gt;&lt;tbody&gt;&lt;tr&gt;&lt;td&gt;&lt;span style=&quot;font-size: 16px;&quot;&gt;Rejeter&lt;/span&gt;&lt;/td&gt;&lt;/tr&gt;&lt;/tbody&gt;&lt;/table&gt;&lt;table&gt;&lt;tbody&gt;&lt;tr&gt;&lt;td&gt;&lt;/td&gt;&lt;/tr&gt;&lt;/tbody&gt;&lt;/table&gt;&lt;table&gt;&lt;tbody&gt;&lt;tr&gt;&lt;/tr&gt;&lt;/tbody&gt;&lt;/table&gt;&lt;/td&gt;&lt;/tr&gt;&lt;/tbody&gt;&lt;/table&gt;" style="ellipse;whiteSpace=wrap;html=1;align=center;fillColor=#dae8fc;strokeColor=#6c8ebf;" vertex="1" parent="1">
          <mxGeometry x="990" y="1090" width="200" height="30" as="geometry" />
        </mxCell>
        <mxCell id="4auQ0otJ4i32f-Xhifq_-19" value="&lt;table&gt;&lt;tbody&gt;&lt;tr&gt;&lt;td&gt;&lt;table&gt;&lt;tbody&gt;&lt;tr&gt;&lt;td&gt;&lt;font style=&quot;font-size: 18px;&quot;&gt;voir historique&amp;nbsp;&lt;/font&gt;&lt;/td&gt;&lt;/tr&gt;&lt;/tbody&gt;&lt;/table&gt;&lt;table&gt;&lt;tbody&gt;&lt;tr&gt;&lt;td&gt;&lt;/td&gt;&lt;/tr&gt;&lt;/tbody&gt;&lt;/table&gt;&lt;table&gt;&lt;tbody&gt;&lt;tr&gt;&lt;/tr&gt;&lt;/tbody&gt;&lt;/table&gt;&lt;/td&gt;&lt;/tr&gt;&lt;/tbody&gt;&lt;/table&gt;" style="ellipse;whiteSpace=wrap;html=1;align=center;fillColor=#dae8fc;strokeColor=#6c8ebf;" vertex="1" parent="1">
          <mxGeometry x="1190" y="970" width="280" height="40" as="geometry" />
        </mxCell>
        <mxCell id="4auQ0otJ4i32f-Xhifq_-20" value="" style="edgeStyle=none;html=1;endArrow=block;endFill=0;endSize=12;verticalAlign=bottom;rounded=0;entryX=0.78;entryY=0.087;entryDx=0;entryDy=0;exitX=0;exitY=0.5;exitDx=0;exitDy=0;entryPerimeter=0;" edge="1" parent="1" source="4auQ0otJ4i32f-Xhifq_-10" target="4auQ0otJ4i32f-Xhifq_-6">
          <mxGeometry width="160" relative="1" as="geometry">
            <mxPoint x="1130" y="990" as="sourcePoint" />
            <mxPoint x="1290" y="990" as="targetPoint" />
          </mxGeometry>
        </mxCell>
        <mxCell id="4auQ0otJ4i32f-Xhifq_-21" value="" style="edgeStyle=none;html=1;endArrow=block;endFill=0;endSize=12;verticalAlign=bottom;rounded=0;entryX=1;entryY=0;entryDx=0;entryDy=0;exitX=0;exitY=0.5;exitDx=0;exitDy=0;" edge="1" parent="1" source="4auQ0otJ4i32f-Xhifq_-9" target="4auQ0otJ4i32f-Xhifq_-6">
          <mxGeometry width="160" relative="1" as="geometry">
            <mxPoint x="830" y="740" as="sourcePoint" />
            <mxPoint x="990" y="740" as="targetPoint" />
          </mxGeometry>
        </mxCell>
        <mxCell id="4auQ0otJ4i32f-Xhifq_-22" value="" style="edgeStyle=none;html=1;endArrow=block;endFill=0;endSize=12;verticalAlign=bottom;rounded=0;exitX=0;exitY=0.5;exitDx=0;exitDy=0;entryX=0.947;entryY=0.333;entryDx=0;entryDy=0;entryPerimeter=0;" edge="1" parent="1" source="4auQ0otJ4i32f-Xhifq_-8" target="4auQ0otJ4i32f-Xhifq_-6">
          <mxGeometry width="160" relative="1" as="geometry">
            <mxPoint x="1130" y="990" as="sourcePoint" />
            <mxPoint x="1070" y="945" as="targetPoint" />
          </mxGeometry>
        </mxCell>
        <mxCell id="4auQ0otJ4i32f-Xhifq_-23" value="" style="edgeStyle=none;html=1;endArrow=block;endFill=0;endSize=12;verticalAlign=bottom;rounded=0;exitX=0;exitY=0.5;exitDx=0;exitDy=0;" edge="1" parent="1" source="4auQ0otJ4i32f-Xhifq_-19" target="4auQ0otJ4i32f-Xhifq_-6">
          <mxGeometry width="160" relative="1" as="geometry">
            <mxPoint x="1130" y="970" as="sourcePoint" />
            <mxPoint x="1290" y="970" as="targetPoint" />
          </mxGeometry>
        </mxCell>
        <mxCell id="4auQ0otJ4i32f-Xhifq_-25" value="" style="edgeStyle=none;html=1;endArrow=none;verticalAlign=bottom;rounded=0;entryX=0;entryY=0.5;entryDx=0;entryDy=0;" edge="1" parent="1" source="4auQ0otJ4i32f-Xhifq_-3" target="4auQ0otJ4i32f-Xhifq_-6">
          <mxGeometry width="160" relative="1" as="geometry">
            <mxPoint x="1130" y="1080" as="sourcePoint" />
            <mxPoint x="1290" y="1080" as="targetPoint" />
          </mxGeometry>
        </mxCell>
        <mxCell id="4auQ0otJ4i32f-Xhifq_-26" value="" style="edgeStyle=none;html=1;endArrow=none;verticalAlign=bottom;rounded=0;entryX=1;entryY=0.5;entryDx=0;entryDy=0;" edge="1" parent="1" source="4auQ0otJ4i32f-Xhifq_-4" target="4auQ0otJ4i32f-Xhifq_-14">
          <mxGeometry width="160" relative="1" as="geometry">
            <mxPoint x="1395" y="1030" as="sourcePoint" />
            <mxPoint x="1555" y="1030" as="targetPoint" />
          </mxGeometry>
        </mxCell>
        <mxCell id="4auQ0otJ4i32f-Xhifq_-27" value="" style="edgeStyle=none;html=1;endArrow=block;endFill=0;endSize=12;verticalAlign=bottom;rounded=0;exitX=0.5;exitY=0;exitDx=0;exitDy=0;" edge="1" parent="1" source="4auQ0otJ4i32f-Xhifq_-13" target="4auQ0otJ4i32f-Xhifq_-14">
          <mxGeometry width="160" relative="1" as="geometry">
            <mxPoint x="1395" y="1160" as="sourcePoint" />
            <mxPoint x="1390" y="1065" as="targetPoint" />
          </mxGeometry>
        </mxCell>
        <mxCell id="4auQ0otJ4i32f-Xhifq_-29" value="&amp;lt;&amp;lt;include&amp;gt;&amp;gt;" style="edgeStyle=none;html=1;endArrow=open;verticalAlign=bottom;dashed=1;labelBackgroundColor=none;rounded=0;entryX=0.933;entryY=0.7;entryDx=0;entryDy=0;entryPerimeter=0;exitX=0;exitY=0.5;exitDx=0;exitDy=0;" edge="1" parent="1" source="4auQ0otJ4i32f-Xhifq_-16" target="4auQ0otJ4i32f-Xhifq_-6">
          <mxGeometry width="160" relative="1" as="geometry">
            <mxPoint x="1144.78" y="1069.32" as="sourcePoint" />
            <mxPoint x="1084.9999999999998" y="970" as="targetPoint" />
          </mxGeometry>
        </mxCell>
        <mxCell id="4auQ0otJ4i32f-Xhifq_-30" value="&amp;lt;&amp;lt;extend&amp;gt;&amp;gt;" style="edgeStyle=none;html=1;startArrow=open;endArrow=none;startSize=12;verticalAlign=bottom;dashed=1;labelBackgroundColor=none;rounded=0;exitX=0.542;exitY=0.03;exitDx=0;exitDy=0;exitPerimeter=0;entryX=0.464;entryY=0.962;entryDx=0;entryDy=0;entryPerimeter=0;" edge="1" parent="1" target="4auQ0otJ4i32f-Xhifq_-11" source="4auQ0otJ4i32f-Xhifq_-6">
          <mxGeometry width="160" relative="1" as="geometry">
            <mxPoint x="979" y="890" as="sourcePoint" />
            <mxPoint x="1320" y="1010" as="targetPoint" />
            <Array as="points" />
          </mxGeometry>
        </mxCell>
        <mxCell id="4auQ0otJ4i32f-Xhifq_-32" value="" style="edgeStyle=none;html=1;endArrow=none;verticalAlign=bottom;rounded=0;" edge="1" parent="1">
          <mxGeometry width="160" relative="1" as="geometry">
            <mxPoint x="1760" y="960" as="sourcePoint" />
            <mxPoint x="1470" y="940" as="targetPoint" />
          </mxGeometry>
        </mxCell>
        <mxCell id="4auQ0otJ4i32f-Xhifq_-33" value="" style="edgeStyle=none;html=1;endArrow=none;verticalAlign=bottom;rounded=0;exitX=1;exitY=1;exitDx=0;exitDy=0;exitPerimeter=0;" edge="1" parent="1" source="4auQ0otJ4i32f-Xhifq_-5">
          <mxGeometry width="160" relative="1" as="geometry">
            <mxPoint x="1190" y="1010" as="sourcePoint" />
            <mxPoint x="1470" y="990" as="targetPoint" />
          </mxGeometry>
        </mxCell>
        <mxCell id="4auQ0otJ4i32f-Xhifq_-35" value="" style="edgeStyle=none;html=1;endArrow=block;endFill=0;endSize=12;verticalAlign=bottom;rounded=0;entryX=0;entryY=0.5;entryDx=0;entryDy=0;exitX=1;exitY=0.5;exitDx=0;exitDy=0;" edge="1" parent="1" source="4auQ0otJ4i32f-Xhifq_-17" target="4auQ0otJ4i32f-Xhifq_-14">
          <mxGeometry width="160" relative="1" as="geometry">
            <mxPoint x="1080" y="1120" as="sourcePoint" />
            <mxPoint x="1120" y="1120" as="targetPoint" />
          </mxGeometry>
        </mxCell>
        <mxCell id="4auQ0otJ4i32f-Xhifq_-36" value="&amp;lt;&amp;lt;extend&amp;gt;&amp;gt;" style="edgeStyle=none;html=1;startArrow=open;endArrow=none;startSize=12;verticalAlign=bottom;dashed=1;labelBackgroundColor=none;rounded=0;entryX=0.5;entryY=0;entryDx=0;entryDy=0;exitX=0.5;exitY=1;exitDx=0;exitDy=0;" edge="1" parent="1" source="4auQ0otJ4i32f-Xhifq_-17" target="4auQ0otJ4i32f-Xhifq_-15">
          <mxGeometry width="160" relative="1" as="geometry">
            <mxPoint x="1355" y="1180" as="sourcePoint" />
            <mxPoint x="1465" y="1180" as="targetPoint" />
          </mxGeometry>
        </mxCell>
        <mxCell id="4auQ0otJ4i32f-Xhifq_-40" value="&lt;span style=&quot;font-size: 16px;&quot;&gt;Gerer les utilisateurs&lt;/span&gt;" style="ellipse;whiteSpace=wrap;html=1;align=center;fillColor=#dae8fc;strokeColor=#6c8ebf;" vertex="1" parent="1">
          <mxGeometry x="1160" y="1375" width="230" height="40" as="geometry" />
        </mxCell>
        <mxCell id="4auQ0otJ4i32f-Xhifq_-43" value="&lt;b&gt;Admin&lt;/b&gt;" style="shape=umlActor;verticalLabelPosition=bottom;verticalAlign=top;html=1;outlineConnect=0;fillColor=#dae8fc;strokeColor=#6c8ebf;" vertex="1" parent="1">
          <mxGeometry x="710" y="1330" width="40" height="60" as="geometry" />
        </mxCell>
        <mxCell id="4auQ0otJ4i32f-Xhifq_-44" value="&lt;span style=&quot;font-size: 16px;&quot;&gt;Gerer les autorisations&lt;/span&gt;" style="ellipse;whiteSpace=wrap;html=1;align=center;fillColor=#dae8fc;strokeColor=#6c8ebf;" vertex="1" parent="1">
          <mxGeometry x="1160" y="1450" width="230" height="40" as="geometry" />
        </mxCell>
        <mxCell id="4auQ0otJ4i32f-Xhifq_-45" value="&lt;span style=&quot;font-size: 16px;&quot;&gt;Administration&lt;/span&gt;" style="ellipse;whiteSpace=wrap;html=1;align=center;fillColor=#dae8fc;gradientColor=#7ea6e0;strokeColor=#6c8ebf;" vertex="1" parent="1">
          <mxGeometry x="860" y="1400" width="230" height="40" as="geometry" />
        </mxCell>
        <mxCell id="4auQ0otJ4i32f-Xhifq_-47" value="" style="edgeStyle=none;html=1;endArrow=none;verticalAlign=bottom;rounded=0;entryX=0;entryY=0.5;entryDx=0;entryDy=0;" edge="1" parent="1" source="4auQ0otJ4i32f-Xhifq_-43" target="4auQ0otJ4i32f-Xhifq_-45">
          <mxGeometry width="160" relative="1" as="geometry">
            <mxPoint x="1170" y="1340" as="sourcePoint" />
            <mxPoint x="1330" y="1340" as="targetPoint" />
          </mxGeometry>
        </mxCell>
        <mxCell id="4auQ0otJ4i32f-Xhifq_-48" value="&amp;lt;&amp;lt;include&amp;gt;&amp;gt;" style="edgeStyle=none;html=1;endArrow=open;verticalAlign=bottom;dashed=1;labelBackgroundColor=none;rounded=0;entryX=0;entryY=0.5;entryDx=0;entryDy=0;" edge="1" parent="1" source="4auQ0otJ4i32f-Xhifq_-45" target="4auQ0otJ4i32f-Xhifq_-40">
          <mxGeometry width="160" relative="1" as="geometry">
            <mxPoint x="1170" y="1340" as="sourcePoint" />
            <mxPoint x="1330" y="1340" as="targetPoint" />
          </mxGeometry>
        </mxCell>
        <mxCell id="4auQ0otJ4i32f-Xhifq_-51" value="&amp;lt;&amp;lt;include&amp;gt;&amp;gt;" style="edgeStyle=none;html=1;endArrow=open;verticalAlign=bottom;dashed=1;labelBackgroundColor=none;rounded=0;exitX=1;exitY=1;exitDx=0;exitDy=0;entryX=0.038;entryY=0.613;entryDx=0;entryDy=0;entryPerimeter=0;" edge="1" parent="1" source="4auQ0otJ4i32f-Xhifq_-45" target="4auQ0otJ4i32f-Xhifq_-44">
          <mxGeometry width="160" relative="1" as="geometry">
            <mxPoint x="1170" y="1340" as="sourcePoint" />
            <mxPoint x="1330" y="1340" as="targetPoint" />
          </mxGeometry>
        </mxCell>
        <mxCell id="4auQ0otJ4i32f-Xhifq_-54" value="&lt;span style=&quot;font-size: 16px;&quot;&gt;Gerer profil&lt;/span&gt;" style="ellipse;whiteSpace=wrap;html=1;align=center;fillColor=#dae8fc;gradientColor=#7ea6e0;strokeColor=#6c8ebf;" vertex="1" parent="1">
          <mxGeometry x="890" y="1300" width="230" height="40" as="geometry" />
        </mxCell>
        <mxCell id="4auQ0otJ4i32f-Xhifq_-55" value="" style="edgeStyle=none;html=1;endArrow=none;verticalAlign=bottom;rounded=0;exitX=1;exitY=0.3333333333333333;exitDx=0;exitDy=0;exitPerimeter=0;entryX=0;entryY=0.5;entryDx=0;entryDy=0;" edge="1" parent="1" source="4auQ0otJ4i32f-Xhifq_-43" target="4auQ0otJ4i32f-Xhifq_-54">
          <mxGeometry width="160" relative="1" as="geometry">
            <mxPoint x="1190" y="1310" as="sourcePoint" />
            <mxPoint x="1350" y="1310" as="targetPoint" />
          </mxGeometry>
        </mxCell>
        <mxCell id="4auQ0otJ4i32f-Xhifq_-57" style="edgeStyle=orthogonalEdgeStyle;rounded=0;orthogonalLoop=1;jettySize=auto;html=1;exitX=0.5;exitY=1;exitDx=0;exitDy=0;" edge="1" parent="1" source="4auQ0otJ4i32f-Xhifq_-17" target="4auQ0otJ4i32f-Xhifq_-17">
          <mxGeometry relative="1" as="geometry" />
        </mxCell>
        <mxCell id="4auQ0otJ4i32f-Xhifq_-58" value="&lt;font style=&quot;font-size: 18px;&quot;&gt;Mettre a jour le stock&lt;/font&gt;" style="ellipse;whiteSpace=wrap;html=1;align=center;fillColor=#dae8fc;gradientColor=#7ea6e0;strokeColor=#6c8ebf;" vertex="1" parent="1">
          <mxGeometry x="1290" y="1260" width="230" height="50" as="geometry" />
        </mxCell>
        <mxCell id="4auQ0otJ4i32f-Xhifq_-60" value="" style="edgeStyle=none;html=1;endArrow=none;verticalAlign=bottom;rounded=0;exitX=1;exitY=0.5;exitDx=0;exitDy=0;" edge="1" parent="1" source="4auQ0otJ4i32f-Xhifq_-58" target="4auQ0otJ4i32f-Xhifq_-4">
          <mxGeometry width="160" relative="1" as="geometry">
            <mxPoint x="1110" y="1210" as="sourcePoint" />
            <mxPoint x="1270" y="1210" as="targetPoint" />
          </mxGeometry>
        </mxCell>
        <mxCell id="4auQ0otJ4i32f-Xhifq_-61" value="" style="edgeStyle=none;html=1;endArrow=block;endFill=0;endSize=12;verticalAlign=bottom;rounded=0;entryX=0.96;entryY=0.596;entryDx=0;entryDy=0;entryPerimeter=0;exitX=0.5;exitY=1;exitDx=0;exitDy=0;" edge="1" parent="1" source="4auQ0otJ4i32f-Xhifq_-12" target="4auQ0otJ4i32f-Xhifq_-10">
          <mxGeometry width="160" relative="1" as="geometry">
            <mxPoint x="1120" y="940" as="sourcePoint" />
            <mxPoint x="1280" y="940" as="targetPoint" />
          </mxGeometry>
        </mxCell>
        <mxCell id="4auQ0otJ4i32f-Xhifq_-62" value="&amp;lt;&amp;lt;include&amp;gt;&amp;gt;" style="edgeStyle=none;html=1;endArrow=open;verticalAlign=bottom;dashed=1;labelBackgroundColor=none;rounded=0;entryX=0.5;entryY=1;entryDx=0;entryDy=0;exitX=0.5;exitY=0;exitDx=0;exitDy=0;" edge="1" parent="1" source="4auQ0otJ4i32f-Xhifq_-58" target="4auQ0otJ4i32f-Xhifq_-13">
          <mxGeometry width="160" relative="1" as="geometry">
            <mxPoint x="1130" y="1250" as="sourcePoint" />
            <mxPoint x="1290" y="1250" as="targetPoint" />
          </mxGeometry>
        </mxCell>
        <mxCell id="4auQ0otJ4i32f-Xhifq_-63" value="" style="edgeStyle=none;html=1;endArrow=none;verticalAlign=bottom;rounded=0;exitX=1;exitY=1;exitDx=0;exitDy=0;exitPerimeter=0;entryX=0;entryY=0.5;entryDx=0;entryDy=0;" edge="1" parent="1" source="4auQ0otJ4i32f-Xhifq_-3" target="4auQ0otJ4i32f-Xhifq_-15">
          <mxGeometry width="160" relative="1" as="geometry">
            <mxPoint x="1130" y="1070" as="sourcePoint" />
            <mxPoint x="1290" y="1070" as="targetPoint" />
          </mxGeometry>
        </mxCell>
        <mxCell id="4auQ0otJ4i32f-Xhifq_-65" value="&lt;table&gt;&lt;tbody&gt;&lt;tr&gt;&lt;td&gt;&lt;font style=&quot;font-size: 16px;&quot;&gt;Générer un Code Sécurisé&amp;nbsp;&lt;/font&gt;&lt;table&gt;&lt;tbody&gt;&lt;tr&gt;&lt;/tr&gt;&lt;/tbody&gt;&lt;/table&gt;&lt;/td&gt;&lt;/tr&gt;&lt;/tbody&gt;&lt;/table&gt;" style="ellipse;whiteSpace=wrap;html=1;align=center;fillColor=#dae8fc;strokeColor=#6c8ebf;" vertex="1" parent="1">
          <mxGeometry x="1210" y="650" width="330" height="40" as="geometry" />
        </mxCell>
        <mxCell id="4auQ0otJ4i32f-Xhifq_-67" value="&amp;lt;&amp;lt;include&amp;gt;&amp;gt;" style="edgeStyle=none;html=1;endArrow=open;verticalAlign=bottom;dashed=1;labelBackgroundColor=none;rounded=0;entryX=0.5;entryY=0;entryDx=0;entryDy=0;" edge="1" parent="1" source="4auQ0otJ4i32f-Xhifq_-65" target="4auQ0otJ4i32f-Xhifq_-10">
          <mxGeometry width="160" relative="1" as="geometry">
            <mxPoint x="960" y="940" as="sourcePoint" />
            <mxPoint x="1120" y="940" as="targetPoint" />
          </mxGeometry>
        </mxCell>
        <mxCell id="4auQ0otJ4i32f-Xhifq_-68" value="&lt;br&gt;&lt;font style=&quot;font-size: 17px;&quot;&gt;Consulter la disponibilité en pharmacie&lt;br&gt;&lt;/font&gt;" style="ellipse;whiteSpace=wrap;html=1;align=center;fillColor=#dae8fc;strokeColor=#6c8ebf;" vertex="1" parent="1">
          <mxGeometry x="1210" y="1030" width="380" height="40" as="geometry" />
        </mxCell>
        <mxCell id="4auQ0otJ4i32f-Xhifq_-69" value="" style="edgeStyle=none;html=1;endArrow=none;verticalAlign=bottom;rounded=0;entryX=1;entryY=0.5;entryDx=0;entryDy=0;" edge="1" parent="1" target="4auQ0otJ4i32f-Xhifq_-68">
          <mxGeometry width="160" relative="1" as="geometry">
            <mxPoint x="1780" y="980" as="sourcePoint" />
            <mxPoint x="1480" y="1000" as="targetPoint" />
          </mxGeometry>
        </mxCell>
        <mxCell id="4auQ0otJ4i32f-Xhifq_-70" style="edgeStyle=orthogonalEdgeStyle;rounded=0;orthogonalLoop=1;jettySize=auto;html=1;exitX=0.5;exitY=1;exitDx=0;exitDy=0;" edge="1" parent="1" source="4auQ0otJ4i32f-Xhifq_-17" target="4auQ0otJ4i32f-Xhifq_-17">
          <mxGeometry relative="1" as="geometry" />
        </mxCell>
      </root>
    </mxGraphModel>
  </diagram>
</mxfile>
